# xmcd
# 
# Track frame offsets:
#     150
#     21460
#     46962
#     68572
# 
# Disc length: 1316
# 
# Revision: 0
# Processed by: cddbd v1.5.2PL0 Copyright (c) Steve Scherf et al.
# Submitted via: fre:ac v1.0.17
# 
DISCID=2e052204
DTITLE=Involution - Truth Be Told *Demo 2003)
DYEAR=2003
DGENRE=Metal
TTITLE0=Trutgh Be Told
TTITLE1=See Right Through
TTITLE2=Masked
TTITLE3=VnR
EXTD=
EXTT0=
EXTT1=
EXTT2=
EXTT3=
PLAYORDER=
